<svg version="1.1" id="Layer_1" xmlns="http://www.w3.org/2000/svg" xmlns:xlink="http://www.w3.org/1999/xlink" x="0px" y="0px"
	 width="100%" viewBox="0 0 1111 629" enable-background="new 0 0 1111 629" xml:space="preserve">
<path fill="#FEFEFE" opacity="1.000000" stroke="none" 
	d="
M797.000000,630.000000 
	C531.333374,630.000000 266.166687,630.000000 1.000036,630.000000 
	C1.000024,420.333374 1.000024,210.666718 1.000012,1.000064 
	C371.333282,1.000042 741.666565,1.000042 1112.000000,1.000021 
	C1112.000000,210.666611 1112.000000,420.333221 1112.000000,629.999878 
	C1007.166687,630.000000 902.333313,630.000000 797.000000,630.000000 
M182.873184,604.932312 
	C183.120605,605.175354 183.417725,605.295288 184.007401,605.038757 
	C184.007401,605.038757 183.750748,605.277405 184.215088,605.863281 
	C187.893005,607.440002 191.372467,607.668640 194.195206,604.192688 
	C194.195206,604.192688 194.378036,604.328247 194.998505,603.939331 
	C195.640625,601.434875 196.819977,598.934570 196.839447,596.425293 
	C196.988449,577.210205 196.952011,557.993042 196.846405,538.777283 
	C196.835114,536.723145 196.010880,534.673401 195.475052,532.576477 
	C195.475052,532.576477 195.475311,532.476929 195.296967,531.942810 
	C194.895035,531.588928 194.493103,531.235046 194.021637,530.992554 
	C194.021637,530.992554 194.118820,530.904236 193.783401,530.301025 
	C191.197739,529.893921 188.612091,529.486755 185.379349,529.069519 
	C184.241623,529.983093 183.103882,530.896667 181.327850,532.281189 
	C180.907761,534.530090 180.133362,536.777466 180.123169,539.028198 
	C180.035492,558.431702 180.039246,577.836060 180.163940,597.239258 
	C180.176880,599.253967 181.152267,601.262573 182.006500,603.150208 
	C182.006500,603.150208 181.683716,603.290039 181.780228,603.770508 
	C181.929672,604.089294 182.175293,604.291016 182.604797,604.412354 
	C182.604797,604.412354 182.638641,604.501160 182.873184,604.932312 
M650.986145,531.005371 
	C650.986145,531.005371 650.932434,530.915710 650.276855,531.266541 
	C649.547913,533.232727 648.198547,535.194885 648.185852,537.165710 
	C648.054321,557.579529 648.101013,577.994934 648.191650,598.409424 
	C648.211548,602.882263 650.191284,606.023621 655.809021,606.830444 
	C656.859680,606.741577 657.910278,606.652710 659.574097,606.652649 
	C660.425659,606.112427 661.277161,605.572205 662.754333,604.644104 
	C663.549438,602.384155 664.976013,600.139709 665.031738,597.861694 
	C665.288086,587.374084 665.058777,576.875854 665.197937,566.383911 
	C665.399292,551.215088 672.953613,543.216614 686.680359,543.392151 
	C692.584290,543.467590 695.723999,541.004822 695.999695,536.082092 
	C696.271790,531.223877 693.316895,528.444458 687.360535,527.999084 
	C678.408203,527.329773 671.124329,530.605652 666.101562,536.722717 
	C664.088745,534.312622 662.084106,531.912415 659.587891,529.076355 
	C656.262390,527.649475 653.345398,528.138611 650.986145,531.005371 
M612.966919,513.300232 
	C618.003540,513.255920 623.040161,513.211609 628.785950,513.282166 
	C629.501221,513.242981 630.216492,513.203796 631.829407,513.276855 
	C634.218323,513.181274 636.607300,513.085693 639.709412,512.961792 
	C643.741577,511.154205 645.572632,508.001587 644.547913,503.737305 
	C643.476318,499.277618 640.222229,497.240479 635.686096,497.239227 
	C613.740967,497.233215 591.795532,497.166962 569.850952,497.274780 
	C563.978638,497.303650 560.623230,501.009186 560.987610,506.363220 
	C561.312134,511.132080 564.452454,513.616455 570.434814,513.716431 
	C578.572205,513.852539 586.710571,513.925598 594.787537,514.947571 
	C594.831116,518.976807 594.874756,523.006104 594.804871,527.895691 
	C594.837524,529.917419 594.870178,531.939148 594.787415,534.900085 
	C594.847595,556.604431 594.907776,578.308716 594.948730,600.753662 
	C595.916565,604.992310 598.913574,606.824829 602.921082,606.892639 
	C606.924438,606.960449 609.993286,605.270508 611.476440,600.325562 
	C611.598755,598.515259 611.825012,596.705017 611.827454,594.894592 
	C611.854187,574.964600 611.813354,555.034607 611.864685,535.104736 
	C611.883484,527.806519 612.098450,520.508911 612.149597,513.091614 
	C612.149597,513.091614 612.042603,513.182800 612.966919,513.300232 
M312.690155,532.460144 
	C309.816132,528.619324 305.922241,527.621887 301.620911,529.169434 
	C297.313080,530.719360 296.772003,534.496216 296.792297,538.600525 
	C296.887695,557.893250 296.894745,577.186707 296.829559,596.479614 
	C296.815277,600.711060 297.223663,604.513611 301.819519,606.303345 
	C306.378906,608.078796 309.861633,606.318237 313.717072,602.976318 
	C315.130676,602.282471 317.622864,601.763733 317.768982,600.864014 
	C318.364410,597.197998 318.472961,593.406128 318.323395,589.678101 
	C318.145782,585.251221 316.961670,580.793762 317.340424,576.447754 
	C317.508667,574.517273 320.437958,572.827271 322.113983,571.028137 
	C323.609833,572.427246 325.182281,573.755798 326.565460,575.258545 
	C327.153534,575.897522 327.345154,576.901367 327.777985,577.876953 
	C329.265320,577.053284 330.400269,576.424744 331.857849,576.452271 
	C335.625397,594.071594 347.819031,605.034973 366.375671,607.487244 
	C384.042908,609.822083 401.122589,599.967834 407.814758,583.578735 
	C414.744781,566.607117 409.669617,547.036987 395.909576,536.166992 
	C375.798431,520.279785 338.782349,526.307495 330.777374,559.905701 
	C329.149719,558.712524 327.838928,557.455322 325.758423,559.799072 
	C324.994324,560.659912 322.006012,560.390442 320.606537,559.608704 
	C319.174042,558.808411 317.598267,556.771484 317.557098,555.236450 
	C317.393036,549.116760 317.721344,542.977600 318.029999,536.853882 
	C318.220459,533.075012 317.026886,531.425415 312.690155,532.460144 
M444.269012,599.347473 
	C444.204620,598.890381 444.140228,598.433228 444.283020,597.498779 
	C444.212677,597.340210 444.142303,597.181641 444.267548,596.100037 
	C444.284332,584.342102 444.301086,572.584167 444.741425,560.261536 
	C445.667572,552.599182 448.963715,546.571533 456.711761,544.079407 
	C469.906342,539.835144 480.618744,548.126709 480.846588,562.801819 
	C481.027283,574.439148 480.966400,586.081543 480.891998,597.720947 
	C480.866119,601.769226 481.984375,604.990662 486.103546,606.344727 
	C490.109985,607.661804 493.614685,606.949158 496.710632,602.718994 
	C496.793182,587.150635 496.875702,571.582336 497.010406,555.207825 
	C494.953888,542.738342 488.654327,533.413696 476.292358,529.566284 
	C464.386993,525.861023 453.304108,527.417664 444.486298,537.451172 
	C443.221649,530.731323 440.517059,528.139771 435.334778,528.522766 
	C430.859131,528.853577 427.926971,531.644287 427.908142,536.307129 
	C427.823547,557.271423 427.844818,578.236633 427.950653,599.200928 
	C427.972931,603.618164 431.160797,606.609741 435.515076,606.917053 
	C440.232880,607.249878 443.050293,604.971497 444.269012,599.347473 
M762.590759,598.698608 
	C764.059570,600.734924 765.528381,602.771301 767.239258,605.057129 
	C767.239258,605.057129 767.577637,605.137085 768.096741,605.739807 
	C775.465942,608.713013 780.476501,605.643250 780.699402,597.917053 
	C780.819519,593.754578 780.710938,589.585754 780.718506,585.419800 
	C780.747253,569.589172 781.018188,553.752258 780.601746,537.933411 
	C780.524170,534.982727 778.336060,531.213440 775.928162,529.483826 
	C774.109802,528.177612 769.973755,528.720520 767.635925,529.926575 
	C765.557983,530.998535 764.534302,534.114014 763.050842,536.319336 
	C761.549438,535.325073 759.778320,534.152283 757.555786,532.449707 
	C749.591003,527.540466 740.839417,526.722961 732.025635,528.631042 
	C715.149902,532.284546 705.359558,543.701172 702.510315,560.045959 
	C699.681152,576.275391 703.984802,590.910706 718.139099,601.069885 
	C730.853943,610.195923 748.655823,610.207947 759.664612,601.226562 
	C760.096375,600.813904 760.528198,600.401245 761.426025,599.789124 
	C761.614685,599.516052 761.803345,599.242981 762.590759,598.698608 
M579.737915,366.412994 
	C579.737915,366.412994 579.606262,366.874329 579.178101,367.389404 
	C578.064636,369.899841 576.951172,372.410278 575.344238,375.391052 
	C567.554260,390.574554 557.749512,404.256042 546.163391,416.849518 
	C535.389587,428.560059 522.487915,433.637939 506.770752,433.969330 
	C482.023376,434.491150 458.037201,430.666077 434.556824,423.240875 
	C393.784607,410.347565 357.725769,389.097229 325.578888,361.084473 
	C305.666565,343.732910 287.675781,324.592194 272.481293,302.908783 
	C270.529663,300.123627 269.655518,297.910675 271.943237,294.501678 
	C296.175842,258.392395 324.703644,226.289871 359.589203,200.122009 
	C391.152100,176.446457 425.515839,158.107193 463.379578,146.615784 
	C484.437225,140.224899 505.930328,136.023087 527.809021,133.643600 
	C551.059631,131.114914 574.316833,131.075745 597.613647,132.757156 
	C601.031677,133.003845 604.482849,132.791397 607.918640,132.791397 
	C606.809937,131.145233 605.662537,130.479950 604.427795,130.200043 
	C563.145935,120.841278 521.501221,118.224098 479.528320,124.303299 
	C434.179718,130.871445 391.751038,145.845917 352.578491,169.757965 
	C302.503235,200.325363 261.835114,240.367935 231.047836,290.394836 
	C227.452621,296.236786 227.272095,301.702179 231.503891,307.013306 
	C242.280273,320.538116 252.415894,334.683197 264.210022,347.265839 
	C294.024597,379.073700 329.145477,403.807007 368.622955,422.373383 
	C434.547180,453.377777 503.530731,463.358246 575.384644,451.713776 
	C617.353149,444.912415 656.765991,430.437866 693.213379,408.382172 
	C745.601074,376.680328 786.207886,333.787964 814.610046,279.477844 
	C815.627686,277.531891 815.507324,274.990814 815.917297,272.727081 
	C814.006653,273.934967 811.740540,274.808441 810.240662,276.402771 
	C795.987854,291.552643 782.549438,307.537231 767.573730,321.925446 
	C726.312927,361.567505 678.846008,391.445374 624.360352,409.649994 
	C616.856079,412.157318 609.189636,414.179352 601.598267,416.426025 
	C601.433716,416.080536 601.269165,415.735046 601.104675,415.389557 
	C605.779053,411.273071 610.453491,407.156586 615.727417,402.771332 
	C643.594971,377.101868 662.040161,345.805542 670.897461,309.029633 
	C675.160095,291.331451 680.904968,274.511597 693.020752,260.478455 
	C699.007629,253.544159 705.348145,246.863754 710.783875,239.517395 
	C718.478333,229.118439 725.699219,218.344910 732.572571,207.386490 
	C733.720032,205.557175 733.028015,200.889984 731.455017,199.516571 
	C729.911560,198.168930 725.621765,198.402542 723.493896,199.617554 
	C719.208923,202.064331 715.495117,205.556305 711.684631,208.781235 
	C697.036804,221.177841 682.073914,233.116226 664.692444,241.583954 
	C643.946533,251.690750 623.040222,253.599518 602.799927,240.865753 
	C589.729736,232.642929 577.322937,223.343079 564.826538,214.240723 
	C558.915771,209.935318 553.580444,204.848206 547.811218,200.336716 
	C544.839417,198.012802 541.110840,196.257751 537.730286,198.973602 
	C534.019836,201.954468 535.685425,206.014023 537.323425,209.503342 
	C538.731079,212.502014 540.400085,215.447708 542.383118,218.094986 
	C553.362488,232.751984 564.569824,247.238602 575.514526,261.921204 
	C588.991150,280.000519 593.763611,300.277740 591.268188,322.681122 
	C589.590393,337.744049 585.112488,351.917297 579.737915,366.412994 
M407.901215,242.409775 
	C391.856171,261.249237 384.697205,283.068207 387.212982,307.633057 
	C392.125336,355.599487 438.023132,390.454651 486.050507,383.099243 
	C531.910583,376.075714 564.539490,333.812775 558.784058,288.068054 
	C553.304443,244.515060 516.335571,212.087555 472.129730,212.405029 
	C446.777588,212.587082 425.321350,222.741638 407.901215,242.409775 
M133.839951,528.212402 
	C126.124466,546.195740 118.408981,564.179077 110.419327,582.801453 
	C109.437920,580.920410 108.681328,579.666260 108.103943,578.334473 
	C97.664223,554.254211 87.248871,530.163391 76.816353,506.079926 
	C76.222565,504.709198 75.643806,503.309387 74.856224,502.049286 
	C72.286842,497.938477 66.778275,495.816956 62.203697,497.070374 
	C57.309631,498.411377 56.065357,502.603760 58.878700,508.879364 
	C72.398827,539.037964 86.006126,569.157654 99.458733,599.346375 
	C101.656044,604.277283 104.864334,607.164978 110.415825,607.143188 
	C115.996468,607.121277 119.118813,604.110168 121.263115,599.185608 
	C131.745056,575.113098 142.393936,551.113342 152.964813,527.079468 
	C155.975311,520.234863 159.117844,513.438660 161.836472,506.478271 
	C164.029541,500.863525 161.053009,496.959686 154.998138,496.921722 
	C149.526596,496.887390 145.945160,499.593506 143.855453,504.555511 
	C140.630447,512.213318 137.342361,519.844543 133.839951,528.212402 
M935.657104,540.177185 
	C922.345154,556.314636 922.325623,580.852661 935.613403,595.219116 
	C949.170776,609.877075 974.561340,612.201050 991.482056,600.332825 
	C997.031067,596.440735 998.644958,591.758606 995.804382,587.792969 
	C993.068542,583.973389 988.658020,584.319275 982.948425,587.521973 
	C978.689941,589.910706 973.877502,592.070801 969.108704,592.644287 
	C956.383484,594.174500 943.999817,586.034668 943.523682,573.127197 
	C945.176819,573.127197 946.817383,573.130310 948.457947,573.126648 
	C963.117615,573.094299 977.777527,573.095337 992.436890,573.009399 
	C997.832275,572.977783 1000.761780,570.166931 1000.952515,564.809204 
	C1001.040466,562.336243 1000.966248,559.782898 1000.452637,557.375488 
	C997.471008,543.399048 989.632141,533.360657 975.604919,529.485474 
	C960.721985,525.373840 947.252869,528.332703 935.657104,540.177185 
M607.537842,183.037766 
	C601.242798,189.215622 598.277771,196.952087 598.399536,205.531616 
	C598.641846,222.602936 613.161987,236.723312 629.876282,236.730301 
	C647.191223,236.737549 661.885132,222.405365 661.898743,204.982330 
	C661.909302,191.507309 655.332214,181.708923 643.130554,176.280182 
	C630.255249,170.551743 618.471497,173.308578 607.537842,183.037766 
M908.945557,584.498047 
	C908.957947,576.500183 909.131409,568.498413 908.937561,560.505554 
	C908.743164,552.489624 906.373108,545.112915 901.292725,538.767822 
	C895.985229,532.139099 888.853333,528.946594 880.586731,528.042908 
	C870.713440,526.963562 862.236755,529.834717 855.478760,537.592957 
	C854.323120,531.167480 851.166504,528.023499 846.606628,528.421997 
	C841.844727,528.838074 839.004211,531.703369 838.988647,536.624756 
	C838.922913,557.452087 838.913269,578.280029 839.009155,599.107178 
	C839.031555,603.980713 842.558838,607.052246 847.431030,606.984070 
	C852.664734,606.910889 855.809875,603.377502 855.842468,597.320435 
	C855.905212,585.657288 855.760254,573.991760 855.943665,562.330994 
	C856.089783,553.041382 860.655457,546.424988 868.044189,544.091187 
	C880.716919,540.088501 891.750183,547.958130 892.019836,561.499695 
	C892.265198,573.825012 892.026184,586.159241 892.136841,598.488281 
	C892.184509,603.800049 895.508606,606.981018 900.545044,606.966675 
	C905.684448,606.952026 908.788147,603.894531 908.924683,598.492615 
	C909.034119,594.163208 908.945862,589.828796 908.945557,584.498047 
M242.680969,573.793091 
	C247.196411,574.909790 251.764297,575.853027 256.210938,577.197266 
	C259.854980,578.298950 263.076721,580.241943 262.973328,584.736206 
	C262.866486,589.382324 259.604492,591.401855 255.667313,592.396851 
	C246.016754,594.835632 237.243942,593.023804 229.406662,586.734985 
	C224.916718,583.132141 220.427475,583.257507 217.428604,586.820679 
	C214.720734,590.038086 215.478592,594.803650 219.267624,598.384460 
	C231.127884,609.592896 258.221558,611.093750 271.211487,601.261780 
	C283.389374,592.044556 282.195496,573.409241 268.780518,566.123962 
	C265.324280,564.246948 261.393982,563.166687 257.590454,562.023071 
	C251.872772,560.304138 246.032333,558.990356 240.326675,557.235779 
	C236.782547,556.145874 233.878082,553.976807 234.335266,549.734558 
	C234.773193,545.670837 237.889938,543.888245 241.472855,543.026367 
	C248.953690,541.226685 255.987656,542.384399 262.505127,546.551025 
	C267.706818,549.876343 271.890015,549.598999 274.361786,545.822754 
	C276.831360,542.049866 275.524750,537.675659 270.903229,534.244263 
	C260.024139,526.166687 238.443512,525.641174 227.220047,533.180420 
	C213.660095,542.289185 214.636017,561.848145 229.202347,569.205322 
	C233.156448,571.202454 237.646744,572.138000 242.680969,573.793091 
M1065.481079,534.104736 
	C1064.830322,530.063416 1061.796875,528.647461 1058.359497,528.229736 
	C1050.568848,527.283142 1043.394409,528.815491 1037.729248,534.696777 
	C1036.768799,535.693848 1036.389648,537.250793 1035.741943,538.549072 
	C1033.639282,531.426453 1030.748169,528.342896 1026.145752,528.388794 
	C1021.468323,528.435486 1018.016418,531.702148 1017.999146,536.683899 
	C1017.927124,557.508728 1017.924316,578.334595 1018.076355,599.158813 
	C1018.118774,604.958984 1023.451111,608.420166 1028.935791,606.556519 
	C1033.360474,605.053162 1034.917969,601.682007 1034.897583,597.229919 
	C1034.848877,586.567444 1034.822144,575.904053 1034.911133,565.242004 
	C1035.034180,550.500244 1042.367798,543.282654 1057.159302,543.180176 
	C1063.378174,543.137085 1065.217041,541.341614 1065.481079,534.104736 
M757.222046,81.884689 
	C758.510742,70.109741 750.015137,59.516247 738.151367,58.104694 
	C727.780151,56.870728 716.454468,65.292793 715.078674,75.262115 
	C713.280457,88.292831 720.703125,98.851997 733.066162,100.850151 
	C744.268005,102.660622 755.207947,94.394691 757.222046,81.884689 
M669.052246,108.393623 
	C668.392761,110.446953 667.517761,112.458870 667.113708,114.561302 
	C665.848206,121.146248 661.496704,124.364433 655.385132,125.906166 
	C651.526245,126.879623 647.650879,127.851494 643.901794,129.163879 
	C642.425110,129.680801 641.272156,131.122284 639.971741,132.142731 
	C641.203308,133.055359 642.307129,134.342163 643.689209,134.813965 
	C648.862305,136.579926 654.144226,138.024017 659.350281,139.697723 
	C662.897888,140.838242 665.214417,143.168716 666.206604,146.905319 
	C667.652771,152.351913 669.234802,157.767807 670.968018,163.129196 
	C671.419678,164.526276 672.646484,165.672760 673.517212,166.934357 
	C674.590210,165.646866 675.988708,164.506180 676.652405,163.034134 
	C677.454834,161.254700 677.793884,159.216095 678.058289,157.252594 
	C679.665527,145.316162 686.086426,138.080429 698.213379,136.226273 
	C700.174316,135.926468 702.178162,135.501953 703.983337,134.721344 
	C705.349976,134.130386 706.431763,132.880753 707.640320,131.924240 
	C706.413269,130.986130 705.320679,129.645752 703.934875,129.182632 
	C699.064575,127.555031 694.121399,126.122528 689.152344,124.820099 
	C684.681824,123.648338 682.124817,120.843254 680.930115,116.477356 
	C679.398682,110.880554 677.806824,105.296310 676.034912,99.772804 
	C675.699890,98.728638 674.401428,97.993591 673.547485,97.115898 
	C672.737732,98.033516 671.566589,98.824242 671.190918,99.894287 
	C670.315186,102.388077 669.822205,105.016281 669.052246,108.393623 
M790.487793,55.186363 
	C789.185425,66.444466 796.237244,76.518669 806.477844,78.029823 
	C818.916443,79.865318 828.178528,73.030396 830.346313,60.416218 
	C832.066956,50.404339 824.751526,40.490292 814.021484,38.292175 
	C803.646301,36.166748 793.286133,43.329185 790.487793,55.186363 
M818.025085,549.503357 
	C818.031799,545.679321 818.073792,541.854980 818.037048,538.031372 
	C817.979675,532.070862 814.730164,528.430725 809.622803,528.529358 
	C804.334473,528.631470 801.154175,532.070679 801.140991,538.082153 
	C801.097534,557.867126 801.102173,577.652466 801.189453,597.437256 
	C801.216492,603.559570 804.360229,606.877258 809.725525,606.921631 
	C814.995056,606.965210 818.006531,603.553162 818.016052,597.388123 
	C818.040283,581.759460 818.023743,566.130859 818.025085,549.503357 
M764.246826,142.574448 
	C763.001099,143.667892 761.628418,144.647659 760.530823,145.873703 
	C754.596802,152.502441 753.694092,161.187088 758.038208,168.975006 
	C761.906860,175.910416 769.951050,179.919266 777.261719,178.619293 
	C785.805969,177.099930 791.551941,172.184402 793.659973,163.864578 
	C795.693970,155.837006 793.726868,148.544815 786.819397,143.415588 
	C779.896973,138.275284 772.444641,137.999557 764.246826,142.574448 
M314.995056,504.879913 
	C312.564331,497.677948 306.815460,494.757355 300.820923,497.679047 
	C296.327209,499.869232 294.335999,504.902466 295.950134,509.991150 
	C297.327118,514.332214 301.595337,516.809204 306.647491,516.199158 
	C311.999817,515.552917 314.783142,512.064819 314.995056,504.879913 
M193.425735,497.905762 
	C192.167313,497.548431 190.929840,497.033691 189.646591,496.863068 
	C185.662552,496.333221 182.317276,497.694244 180.262314,501.136688 
	C178.040558,504.858612 178.246475,508.844086 180.639709,512.438293 
	C182.903183,515.837646 186.643951,517.328796 190.213577,515.950439 
	C193.128067,514.825073 196.405334,512.383484 197.633041,509.670685 
	C199.506485,505.531097 198.140579,501.188293 193.425735,497.905762 
M803.576111,498.889008 
	C799.794312,503.141266 798.969666,507.579163 801.303162,511.580902 
	C803.750916,515.778625 807.655518,516.799316 812.072571,515.985046 
	C816.581970,515.153748 819.429871,511.911438 819.242676,507.635284 
	C819.106812,504.532959 817.531555,500.777557 815.313782,498.656219 
	C812.256470,495.731964 807.971130,496.053162 803.576111,498.889008 
z"/>
<path fill="#6EB6BA" opacity="1.000000" stroke="none" 
	d="
M615.127869,403.040070 
	C610.453491,407.156586 605.779053,411.273071 601.104675,415.389557 
	C601.269165,415.735046 601.433716,416.080536 601.598267,416.426025 
	C609.189636,414.179352 616.856079,412.157318 624.360352,409.649994 
	C678.846008,391.445374 726.312927,361.567505 767.573730,321.925446 
	C782.549438,307.537231 795.987854,291.552643 810.240662,276.402771 
	C811.740540,274.808441 814.006653,273.934967 815.917297,272.727081 
	C815.507324,274.990814 815.627686,277.531891 814.610046,279.477844 
	C786.207886,333.787964 745.601074,376.680328 693.213379,408.382172 
	C656.765991,430.437866 617.353149,444.912415 575.384644,451.713776 
	C503.530731,463.358246 434.547180,453.377777 368.622955,422.373383 
	C329.145477,403.807007 294.024597,379.073700 264.210022,347.265839 
	C252.415894,334.683197 242.280273,320.538116 231.503891,307.013306 
	C227.272095,301.702179 227.452621,296.236786 231.047836,290.394836 
	C261.835114,240.367935 302.503235,200.325363 352.578491,169.757965 
	C391.751038,145.845917 434.179718,130.871445 479.528320,124.303299 
	C521.501221,118.224098 563.145935,120.841278 604.427795,130.200043 
	C605.662537,130.479950 606.809937,131.145233 607.918640,132.791397 
	C604.482849,132.791397 601.031677,133.003845 597.613647,132.757156 
	C574.316833,131.075745 551.059631,131.114914 527.809021,133.643600 
	C505.930328,136.023087 484.437225,140.224899 463.379578,146.615784 
	C425.515839,158.107193 391.152100,176.446457 359.589203,200.122009 
	C324.703644,226.289871 296.175842,258.392395 271.943237,294.501678 
	C269.655518,297.910675 270.529663,300.123627 272.481293,302.908783 
	C287.675781,324.592194 305.666565,343.732910 325.578888,361.084473 
	C357.725769,389.097229 393.784607,410.347565 434.556824,423.240875 
	C458.037201,430.666077 482.023376,434.491150 506.770752,433.969330 
	C522.487915,433.637939 535.389587,428.560059 546.163391,416.849518 
	C557.749512,404.256042 567.554260,390.574554 575.907349,375.304626 
	C582.625244,381.726837 588.771912,388.243164 594.946350,394.733002 
	C595.611389,395.431976 596.343079,396.230896 597.204773,396.553253 
	C603.155212,398.779480 609.148438,400.891388 615.127869,403.040070 
M599.527100,416.637146 
	C599.527100,416.637146 599.671875,416.432068 599.671875,416.432068 
	C599.671875,416.432068 599.356506,416.447693 599.527100,416.637146 
z"/>
<path fill="#6CB6B9" opacity="1.000000" stroke="none" 
	d="
M408.135986,242.142578 
	C425.321350,222.741638 446.777588,212.587082 472.129730,212.405029 
	C516.335571,212.087555 553.304443,244.515060 558.784058,288.068054 
	C564.539490,333.812775 531.910583,376.075714 486.050507,383.099243 
	C438.023132,390.454651 392.125336,355.599487 387.212982,307.633057 
	C384.697205,283.068207 391.856171,261.249237 408.135986,242.142578 
M435.101135,281.616333 
	C434.743378,282.893494 434.425049,284.183258 434.021912,285.445953 
	C428.659668,302.241730 434.097076,319.675140 448.080688,330.481720 
	C466.118927,344.421692 493.408875,340.550415 506.182617,322.239594 
	C520.181641,302.172272 515.047119,275.961304 494.633789,263.455902 
	C483.794708,256.815765 472.187164,255.923630 459.352081,258.871613 
	C447.125671,252.939789 435.452240,257.884552 433.713959,270.117523 
	C433.227203,273.543152 434.572876,277.229187 435.101135,281.616333 
z"/>
<path fill="#6CB5B8" opacity="1.000000" stroke="none" 
	d="
M615.427612,402.905701 
	C609.148438,400.891388 603.155212,398.779480 597.204773,396.553253 
	C596.343079,396.230896 595.611389,395.431976 594.946350,394.733002 
	C588.771912,388.243164 582.625244,381.726837 576.154114,375.069458 
	C576.951172,372.410278 578.064636,369.899841 579.606262,367.118713 
	C580.153870,366.778076 580.273315,366.708191 580.392761,366.638306 
	C580.252869,366.423828 580.112976,366.209351 579.973083,365.994873 
	C585.112488,351.917297 589.590393,337.744049 591.268188,322.681122 
	C593.763611,300.277740 588.991150,280.000519 575.514526,261.921204 
	C564.569824,247.238602 553.362488,232.751984 542.383118,218.094986 
	C540.400085,215.447708 538.731079,212.502014 537.323425,209.503342 
	C535.685425,206.014023 534.019836,201.954468 537.730286,198.973602 
	C541.110840,196.257751 544.839417,198.012802 547.811218,200.336716 
	C553.580444,204.848206 558.915771,209.935318 564.826538,214.240723 
	C577.322937,223.343079 589.729736,232.642929 602.799927,240.865753 
	C623.040222,253.599518 643.946533,251.690750 664.692444,241.583954 
	C682.073914,233.116226 697.036804,221.177841 711.684631,208.781235 
	C715.495117,205.556305 719.208923,202.064331 723.493896,199.617554 
	C725.621765,198.402542 729.911560,198.168930 731.455017,199.516571 
	C733.028015,200.889984 733.720032,205.557175 732.572571,207.386490 
	C725.699219,218.344910 718.478333,229.118439 710.783875,239.517395 
	C705.348145,246.863754 699.007629,253.544159 693.020752,260.478455 
	C680.904968,274.511597 675.160095,291.331451 670.897461,309.029633 
	C662.040161,345.805542 643.594971,377.101868 615.427612,402.905701 
z"/>
<path fill="#233E5E" opacity="1.000000" stroke="none" 
	d="
M133.960495,527.849731 
	C137.342361,519.844543 140.630447,512.213318 143.855453,504.555511 
	C145.945160,499.593506 149.526596,496.887390 154.998138,496.921722 
	C161.053009,496.959686 164.029541,500.863525 161.836472,506.478271 
	C159.117844,513.438660 155.975311,520.234863 152.964813,527.079468 
	C142.393936,551.113342 131.745056,575.113098 121.263115,599.185608 
	C119.118813,604.110168 115.996468,607.121277 110.415825,607.143188 
	C104.864334,607.164978 101.656044,604.277283 99.458733,599.346375 
	C86.006126,569.157654 72.398827,539.037964 58.878700,508.879364 
	C56.065357,502.603760 57.309631,498.411377 62.203697,497.070374 
	C66.778275,495.816956 72.286842,497.938477 74.856224,502.049286 
	C75.643806,503.309387 76.222565,504.709198 76.816353,506.079926 
	C87.248871,530.163391 97.664223,554.254211 108.103943,578.334473 
	C108.681328,579.666260 109.437920,580.920410 110.419327,582.801453 
	C118.408981,564.179077 126.124466,546.195740 133.960495,527.849731 
z"/>
<path fill="#6AB4B8" opacity="1.000000" stroke="none" 
	d="
M935.898926,539.913086 
	C947.252869,528.332703 960.721985,525.373840 975.604919,529.485474 
	C989.632141,533.360657 997.471008,543.399048 1000.452637,557.375488 
	C1000.966248,559.782898 1001.040466,562.336243 1000.952515,564.809204 
	C1000.761780,570.166931 997.832275,572.977783 992.436890,573.009399 
	C977.777527,573.095337 963.117615,573.094299 948.457947,573.126648 
	C946.817383,573.130310 945.176819,573.127197 943.523682,573.127197 
	C943.999817,586.034668 956.383484,594.174500 969.108704,592.644287 
	C973.877502,592.070801 978.689941,589.910706 982.948425,587.521973 
	C988.658020,584.319275 993.068542,583.973389 995.804382,587.792969 
	C998.644958,591.758606 997.031067,596.440735 991.482056,600.332825 
	C974.561340,612.201050 949.170776,609.877075 935.613403,595.219116 
	C922.325623,580.852661 922.345154,556.314636 935.898926,539.913086 
M982.225586,552.544067 
	C976.407532,543.840210 968.622925,540.717468 958.679504,543.098755 
	C950.657288,545.019958 944.652893,551.635498 943.721069,559.673279 
	C957.093018,559.673279 970.450745,559.673279 984.560669,559.673279 
	C983.815918,557.189026 983.218811,555.197266 982.225586,552.544067 
z"/>
<path fill="#254060" opacity="1.000000" stroke="none" 
	d="
M331.455780,560.190735 
	C338.782349,526.307495 375.798431,520.279785 395.909576,536.166992 
	C409.669617,547.036987 414.744781,566.607117 407.814758,583.578735 
	C401.122589,599.967834 384.042908,609.822083 366.375671,607.487244 
	C347.819031,605.034973 335.625397,594.071594 331.694031,575.668091 
	C331.505402,569.986206 331.480591,565.088501 331.455780,560.190735 
M347.809326,566.614380 
	C347.805481,567.278870 347.782959,567.943909 347.800537,568.607849 
	C348.157928,582.104126 357.314850,592.075073 370.046082,592.836487 
	C381.708984,593.534058 392.121521,584.117859 393.909088,571.256958 
	C395.710907,558.293518 387.902313,546.233826 375.916656,543.469116 
	C362.001221,540.259277 349.800293,549.917725 347.809326,566.614380 
z"/>
<path fill="#6CB5B8" opacity="1.000000" stroke="none" 
	d="
M607.791748,182.783081 
	C618.471497,173.308578 630.255249,170.551743 643.130554,176.280182 
	C655.332214,181.708923 661.909302,191.507309 661.898743,204.982330 
	C661.885132,222.405365 647.191223,236.737549 629.876282,236.730301 
	C613.161987,236.723312 598.641846,222.602936 598.399536,205.531616 
	C598.277771,196.952087 601.242798,189.215622 607.791748,182.783081 
z"/>
<path fill="#6AB5B8" opacity="1.000000" stroke="none" 
	d="
M908.945435,584.997314 
	C908.945862,589.828796 909.034119,594.163208 908.924683,598.492615 
	C908.788147,603.894531 905.684448,606.952026 900.545044,606.966675 
	C895.508606,606.981018 892.184509,603.800049 892.136841,598.488281 
	C892.026184,586.159241 892.265198,573.825012 892.019836,561.499695 
	C891.750183,547.958130 880.716919,540.088501 868.044189,544.091187 
	C860.655457,546.424988 856.089783,553.041382 855.943665,562.330994 
	C855.760254,573.991760 855.905212,585.657288 855.842468,597.320435 
	C855.809875,603.377502 852.664734,606.910889 847.431030,606.984070 
	C842.558838,607.052246 839.031555,603.980713 839.009155,599.107178 
	C838.913269,578.280029 838.922913,557.452087 838.988647,536.624756 
	C839.004211,531.703369 841.844727,528.838074 846.606628,528.421997 
	C851.166504,528.023499 854.323120,531.167480 855.478760,537.592957 
	C862.236755,529.834717 870.713440,526.963562 880.586731,528.042908 
	C888.853333,528.946594 895.985229,532.139099 901.292725,538.767822 
	C906.373108,545.112915 908.743164,552.489624 908.937561,560.505554 
	C909.131409,568.498413 908.957947,576.500183 908.945435,584.997314 
z"/>
<path fill="#6AB4B8" opacity="1.000000" stroke="none" 
	d="
M767.577637,605.137085 
	C767.577637,605.137085 767.239258,605.057129 767.108398,604.544373 
	C766.642578,602.427856 766.465271,600.770203 765.939331,599.231750 
	C764.908264,596.215759 763.506836,596.066162 761.992065,598.969971 
	C761.803345,599.242981 761.614685,599.516052 760.865479,599.934082 
	C759.903687,600.543823 759.502441,601.008667 759.101196,601.473511 
	C748.655823,610.207947 730.853943,610.195923 718.139099,601.069885 
	C703.984802,590.910706 699.681152,576.275391 702.510315,560.045959 
	C705.359558,543.701172 715.149902,532.284546 732.025635,528.631042 
	C740.839417,526.722961 749.591003,527.540466 757.820435,533.090881 
	C759.424133,535.655457 760.763184,537.578857 762.781494,540.478088 
	C759.489380,541.857727 755.647095,543.467957 751.591003,545.050293 
	C751.377197,545.022400 750.995483,544.821716 750.945801,544.480408 
	C749.743469,541.705933 748.134644,541.227600 745.551880,543.009155 
	C729.382629,541.325928 717.780701,553.569519 718.948059,570.078308 
	C719.856567,582.926697 730.147461,593.137756 742.184753,592.844849 
	C754.482605,592.545715 763.954041,582.216370 764.036072,568.993530 
	C764.050537,566.666443 763.993774,564.338928 764.304749,561.862305 
	C767.987366,558.777466 767.916138,556.841858 764.412415,554.980225 
	C763.146973,554.307861 761.910278,553.581238 760.497314,552.818542 
	C760.334045,552.757690 760.095032,552.504150 760.460938,552.339722 
	C765.621948,547.147034 771.328369,543.978638 778.116760,543.281799 
	C776.417969,549.903931 774.759766,556.367676 773.085327,562.894531 
	C775.855591,563.830383 777.343689,564.333130 778.685303,564.786377 
	C778.685303,567.871033 778.685303,570.620178 778.685303,572.739014 
	C776.315002,573.046570 774.367920,573.299194 772.420837,573.551819 
	C773.115234,576.018555 773.085205,579.927979 774.628906,580.703247 
	C781.445862,584.126343 778.338745,589.605713 778.931152,594.683350 
	C776.672729,594.562683 775.009949,594.473816 773.347229,594.384949 
	C773.140625,594.936096 772.933960,595.487244 772.727295,596.038391 
	C774.730652,597.047974 776.733948,598.057556 779.777405,599.591309 
	C778.055664,601.482056 776.833679,603.836548 774.956421,604.619141 
	C772.799683,605.518250 770.062622,605.025330 767.577637,605.137085 
z"/>
<path fill="#254060" opacity="1.000000" stroke="none" 
	d="
M242.285950,573.676880 
	C237.646744,572.138000 233.156448,571.202454 229.202347,569.205322 
	C214.636017,561.848145 213.660095,542.289185 227.220047,533.180420 
	C238.443512,525.641174 260.024139,526.166687 270.903229,534.244263 
	C275.524750,537.675659 276.831360,542.049866 274.361786,545.822754 
	C271.890015,549.598999 267.706818,549.876343 262.505127,546.551025 
	C255.987656,542.384399 248.953690,541.226685 241.472855,543.026367 
	C237.889938,543.888245 234.773193,545.670837 234.335266,549.734558 
	C233.878082,553.976807 236.782547,556.145874 240.326675,557.235779 
	C246.032333,558.990356 251.872772,560.304138 257.590454,562.023071 
	C261.393982,563.166687 265.324280,564.246948 268.780518,566.123962 
	C282.195496,573.409241 283.389374,592.044556 271.211487,601.261780 
	C258.221558,611.093750 231.127884,609.592896 219.267624,598.384460 
	C215.478592,594.803650 214.720734,590.038086 217.428604,586.820679 
	C220.427475,583.257507 224.916718,583.132141 229.406662,586.734985 
	C237.243942,593.023804 246.016754,594.835632 255.667313,592.396851 
	C259.604492,591.401855 262.866486,589.382324 262.973328,584.736206 
	C263.076721,580.241943 259.854980,578.298950 256.210938,577.197266 
	C251.764297,575.853027 247.196411,574.909790 242.285950,573.676880 
z"/>
<path fill="#233F5F" opacity="1.000000" stroke="none" 
	d="
M444.071930,597.023071 
	C444.142303,597.181641 444.212677,597.340210 443.943359,597.882629 
	C443.753387,598.848572 443.903107,599.430603 444.052795,600.012695 
	C443.050293,604.971497 440.232880,607.249878 435.515076,606.917053 
	C431.160797,606.609741 427.972931,603.618164 427.950653,599.200928 
	C427.844818,578.236633 427.823547,557.271423 427.908142,536.307129 
	C427.926971,531.644287 430.859131,528.853577 435.334778,528.522766 
	C440.517059,528.139771 443.221649,530.731323 444.486298,537.451172 
	C453.304108,527.417664 464.386993,525.861023 476.292358,529.566284 
	C488.654327,533.413696 494.953888,542.738342 496.737366,555.847473 
	C494.390533,558.312439 492.316742,560.137695 489.388550,562.715088 
	C496.856537,564.137329 496.223083,569.252747 496.112488,574.435242 
	C495.908020,584.018372 496.077789,593.609497 496.091675,603.197327 
	C493.614685,606.949158 490.109985,607.661804 486.103546,606.344727 
	C481.984375,604.990662 480.866119,601.769226 480.891998,597.720947 
	C480.966400,586.081543 481.027283,574.439148 480.846588,562.801819 
	C480.618744,548.126709 469.906342,539.835144 456.711761,544.079407 
	C448.963715,546.571533 445.667572,552.599182 444.179321,560.817993 
	C443.477936,572.869751 443.330048,584.364990 443.236725,595.860596 
	C443.233582,596.245789 443.781097,596.635498 444.071930,597.023071 
z"/>
<path fill="#6AB4B8" opacity="1.000000" stroke="none" 
	d="
M594.902771,533.960876 
	C594.870178,531.939148 594.837524,529.917419 595.171326,527.182251 
	C595.308044,522.321045 595.078247,518.173401 594.848511,514.025696 
	C586.710571,513.925598 578.572205,513.852539 570.434814,513.716431 
	C564.452454,513.616455 561.312134,511.132080 560.987610,506.363220 
	C560.623230,501.009186 563.978638,497.303650 569.850952,497.274780 
	C591.795532,497.166962 613.740967,497.233215 635.686096,497.239227 
	C640.222229,497.240479 643.476318,499.277618 644.547913,503.737305 
	C645.572632,508.001587 643.741577,511.154205 639.082642,512.692688 
	C635.947876,512.670593 633.439819,512.917603 630.931763,513.164551 
	C630.216492,513.203796 629.501221,513.242981 628.150024,512.897461 
	C622.356934,512.736145 617.199768,512.959473 612.042603,513.182800 
	C612.042603,513.182800 612.149597,513.091614 611.767883,513.155701 
	C610.935364,514.840210 610.097046,516.459412 610.091614,518.081299 
	C610.005005,544.161926 610.007385,570.242859 610.062134,596.323608 
	C610.065430,597.884094 610.680054,599.443298 611.010193,601.003113 
	C609.993286,605.270508 606.924438,606.960449 602.921082,606.892639 
	C598.913574,606.824829 595.916565,604.992310 595.261230,600.091919 
	C595.713135,598.788574 595.973816,598.147156 595.974609,597.505432 
	C595.998535,577.534119 596.016235,557.562744 595.952637,537.591614 
	C595.948792,536.380310 595.268372,535.171082 594.902771,533.960876 
z"/>
<path fill="#6AB4B8" opacity="1.000000" stroke="none" 
	d="
M1065.589722,534.473755 
	C1065.217041,541.341614 1063.378174,543.137085 1057.159302,543.180176 
	C1042.367798,543.282654 1035.034180,550.500244 1034.911133,565.242004 
	C1034.822144,575.904053 1034.848877,586.567444 1034.897583,597.229919 
	C1034.917969,601.682007 1033.360474,605.053162 1028.935791,606.556519 
	C1023.451111,608.420166 1018.118774,604.958984 1018.076355,599.158813 
	C1017.924316,578.334595 1017.927124,557.508728 1017.999146,536.683899 
	C1018.016418,531.702148 1021.468323,528.435486 1026.145752,528.388794 
	C1030.748169,528.342896 1033.639282,531.426453 1035.741943,538.549072 
	C1036.389648,537.250793 1036.768799,535.693848 1037.729248,534.696777 
	C1043.394409,528.815491 1050.568848,527.283142 1058.359497,528.229736 
	C1061.796875,528.647461 1064.830322,530.063416 1065.589722,534.473755 
z"/>
<path fill="#69B4B8" opacity="1.000000" stroke="none" 
	d="
M658.960938,606.563843 
	C657.910278,606.652710 656.859680,606.741577 655.330078,606.421143 
	C650.785767,603.444031 649.792053,599.810974 649.865051,595.051025 
	C650.147705,576.621033 649.936279,558.183899 650.019836,539.749939 
	C650.033142,536.803894 650.613953,533.860413 650.932434,530.915710 
	C650.932434,530.915710 650.986145,531.005371 651.329590,531.023987 
	C657.201538,534.064148 658.391907,533.847412 660.079468,529.512146 
	C662.084106,531.912415 664.088745,534.312622 666.101562,536.722717 
	C671.124329,530.605652 678.408203,527.329773 687.360535,527.999084 
	C693.316895,528.444458 696.271790,531.223877 695.999695,536.082092 
	C695.723999,541.004822 692.584290,543.467590 686.680359,543.392151 
	C672.953613,543.216614 665.399292,551.215088 665.197937,566.383911 
	C665.058777,576.875854 665.288086,587.374084 665.031738,597.861694 
	C664.976013,600.139709 663.549438,602.384155 662.103088,604.829651 
	C660.621521,605.531433 659.791260,606.047607 658.960938,606.563843 
z"/>
<path fill="#F3C769" opacity="1.000000" stroke="none" 
	d="
M757.165405,82.284470 
	C755.207947,94.394691 744.268005,102.660622 733.066162,100.850151 
	C720.703125,98.851997 713.280457,88.292831 715.078674,75.262115 
	C716.454468,65.292793 727.780151,56.870728 738.151367,58.104694 
	C750.015137,59.516247 758.510742,70.109741 757.165405,82.284470 
z"/>
<path fill="#F3C769" opacity="1.000000" stroke="none" 
	d="
M669.113159,107.991837 
	C669.822205,105.016281 670.315186,102.388077 671.190918,99.894287 
	C671.566589,98.824242 672.737732,98.033516 673.547485,97.115906 
	C674.401428,97.993591 675.699890,98.728638 676.034912,99.772804 
	C677.806824,105.296310 679.398682,110.880554 680.930115,116.477356 
	C682.124817,120.843254 684.681824,123.648338 689.152344,124.820099 
	C694.121399,126.122528 699.064575,127.555031 703.934875,129.182632 
	C705.320679,129.645752 706.413269,130.986130 707.640320,131.924225 
	C706.431763,132.880753 705.349976,134.130386 703.983337,134.721344 
	C702.178162,135.501953 700.174316,135.926468 698.213379,136.226273 
	C686.086426,138.080429 679.665527,145.316162 678.058289,157.252594 
	C677.793884,159.216095 677.454834,161.254700 676.652405,163.034134 
	C675.988708,164.506180 674.590210,165.646866 673.517212,166.934357 
	C672.646484,165.672760 671.419678,164.526276 670.968018,163.129196 
	C669.234802,157.767807 667.652771,152.351913 666.206604,146.905319 
	C665.214417,143.168716 662.897888,140.838242 659.350281,139.697723 
	C654.144226,138.024017 648.862305,136.579926 643.689209,134.813965 
	C642.307129,134.342163 641.203308,133.055359 639.971741,132.142731 
	C641.272156,131.122284 642.425110,129.680801 643.901794,129.163879 
	C647.650879,127.851494 651.526245,126.879623 655.385132,125.906166 
	C661.496704,124.364433 665.848206,121.146248 667.113708,114.561302 
	C667.517761,112.458870 668.392761,110.446953 669.113159,107.991837 
z"/>
<path fill="#B1BF87" opacity="1.000000" stroke="none" 
	d="
M790.606445,54.792160 
	C793.286133,43.329185 803.646301,36.166748 814.021484,38.292175 
	C824.751526,40.490292 832.066956,50.404339 830.346313,60.416218 
	C828.178528,73.030396 818.916443,79.865318 806.477844,78.029823 
	C796.237244,76.518669 789.185425,66.444466 790.606445,54.792160 
z"/>
<path fill="#6AB4B8" opacity="1.000000" stroke="none" 
	d="
M818.024292,550.002808 
	C818.023743,566.130859 818.040283,581.759460 818.016052,597.388123 
	C818.006531,603.553162 814.995056,606.965210 809.725525,606.921631 
	C804.360229,606.877258 801.216492,603.559570 801.189453,597.437256 
	C801.102173,577.652466 801.097534,557.867126 801.140991,538.082153 
	C801.154175,532.070679 804.334473,528.631470 809.622803,528.529358 
	C814.730164,528.430725 817.979675,532.070862 818.037048,538.031372 
	C818.073792,541.854980 818.031799,545.679321 818.024292,550.002808 
z"/>
<path fill="#6EB6BA" opacity="1.000000" stroke="none" 
	d="
M764.555542,142.368378 
	C772.444641,137.999557 779.896973,138.275284 786.819397,143.415588 
	C793.726868,148.544815 795.693970,155.837006 793.659973,163.864578 
	C791.551941,172.184402 785.805969,177.099930 777.261719,178.619293 
	C769.951050,179.919266 761.906860,175.910416 758.038208,168.975006 
	C753.694092,161.187088 754.596802,152.502441 760.530823,145.873703 
	C761.628418,144.647659 763.001099,143.667892 764.555542,142.368378 
z"/>
<path fill="#233F5F" opacity="1.000000" stroke="none" 
	d="
M312.854065,602.945496 
	C309.861633,606.318237 306.378906,608.078796 301.819519,606.303345 
	C297.223663,604.513611 296.815277,600.711060 296.829559,596.479614 
	C296.894745,577.186707 296.887695,557.893250 296.792297,538.600525 
	C296.772003,534.496216 297.313080,530.719360 301.620911,529.169434 
	C305.922241,527.621887 309.816132,528.619324 312.879211,532.983154 
	C313.031281,533.673706 312.994324,533.841248 312.658051,534.300476 
	C312.231415,535.236084 311.993439,535.879822 311.992920,536.523743 
	C311.976318,556.785217 311.965942,577.046753 312.027466,597.308044 
	C312.031189,598.535767 312.634216,599.761719 312.989075,601.315552 
	C312.964539,602.076965 312.909302,602.511230 312.854065,602.945496 
z"/>
<path fill="#213D5D" opacity="1.000000" stroke="none" 
	d="
M181.966141,531.810242 
	C183.103882,530.896667 184.241623,529.983093 185.972275,529.329956 
	C189.083069,530.028320 191.600952,530.466248 194.118820,530.904236 
	C194.118820,530.904236 194.021637,530.992554 194.077148,531.258057 
	C194.580215,531.841370 195.027771,532.159180 195.475311,532.476929 
	C195.475311,532.476929 195.475052,532.576477 195.366974,533.077026 
	C195.183929,539.396362 195.106445,545.215027 195.034409,551.033875 
	C194.814484,568.798645 194.596680,586.563477 194.378036,604.328247 
	C194.378036,604.328247 194.195206,604.192688 193.835739,604.229675 
	C190.234436,604.603577 186.992584,604.940491 183.750748,605.277405 
	C183.750748,605.277405 184.007401,605.038757 183.814575,604.901550 
	C183.294052,604.676636 182.966339,604.588867 182.638641,604.501160 
	C182.638641,604.501160 182.604797,604.412354 182.583160,604.119507 
	C182.268921,603.647766 181.976334,603.468872 181.683716,603.290039 
	C181.683716,603.290039 182.006500,603.150208 181.929504,602.728699 
	C181.890381,578.808228 181.928253,555.309204 181.966141,531.810242 
z"/>
<path fill="#69B4B8" opacity="1.000000" stroke="none" 
	d="
M751.804810,545.078186 
	C755.647095,543.467957 759.489380,541.857727 762.781494,540.478088 
	C760.763184,537.578857 759.424133,535.655457 758.046204,533.355774 
	C759.778320,534.152283 761.549438,535.325073 763.050842,536.319336 
	C764.534302,534.114014 765.557983,530.998535 767.635925,529.926575 
	C769.973755,528.720520 774.109802,528.177612 775.928162,529.483826 
	C778.336060,531.213440 780.524170,534.982727 780.601746,537.933411 
	C781.018188,553.752258 780.747253,569.589172 780.718506,585.419800 
	C780.710938,589.585754 780.819519,593.754578 780.699402,597.917053 
	C780.476501,605.643250 775.465942,608.713013 767.837158,605.438477 
	C770.062622,605.025330 772.799683,605.518250 774.956421,604.619141 
	C776.833679,603.836548 778.055664,601.482056 779.777405,599.591309 
	C776.733948,598.057556 774.730652,597.047974 772.727295,596.038391 
	C772.933960,595.487244 773.140625,594.936096 773.347229,594.384949 
	C775.009949,594.473816 776.672729,594.562683 778.931152,594.683350 
	C778.338745,589.605713 781.445862,584.126343 774.628906,580.703247 
	C773.085205,579.927979 773.115234,576.018555 772.420837,573.551819 
	C774.367920,573.299194 776.315002,573.046570 778.685303,572.739014 
	C778.685303,570.620178 778.685303,567.871033 778.685303,564.786377 
	C777.343689,564.333130 775.855591,563.830383 773.085327,562.894531 
	C774.759766,556.367676 776.417969,549.903931 778.116760,543.281799 
	C771.328369,543.978638 765.621948,547.147034 760.236450,552.138428 
	C757.032349,549.760437 754.418579,547.419312 751.804810,545.078186 
z"/>
<path fill="#FBFBFC" opacity="1.000000" stroke="none" 
	d="
M312.957397,534.008728 
	C312.994324,533.841248 313.031281,533.673706 313.104431,533.251343 
	C317.026886,531.425415 318.220459,533.075012 318.029999,536.853882 
	C317.721344,542.977600 317.393036,549.116760 317.557098,555.236450 
	C317.598267,556.771484 319.174042,558.808411 320.606537,559.608704 
	C322.006012,560.390442 324.994324,560.659912 325.758423,559.799072 
	C327.838928,557.455322 329.149719,558.712524 331.116577,560.048218 
	C331.480591,565.088501 331.505402,569.986206 331.532684,575.340088 
	C330.400269,576.424744 329.265320,577.053284 327.777985,577.876953 
	C327.345154,576.901367 327.153534,575.897522 326.565460,575.258545 
	C325.182281,573.755798 323.609833,572.427246 322.113983,571.028137 
	C320.437958,572.827271 317.508667,574.517273 317.340424,576.447754 
	C316.961670,580.793762 318.145782,585.251221 318.323395,589.678101 
	C318.472961,593.406128 318.364410,597.197998 317.768982,600.864014 
	C317.622864,601.763733 315.130676,602.282471 313.285583,602.960938 
	C312.909302,602.511230 312.964539,602.076965 313.154846,600.872620 
	C313.396332,578.861145 313.509888,557.619690 313.581146,536.378174 
	C313.583801,535.589111 313.174622,534.798584 312.957397,534.008728 
z"/>
<path fill="#233F5F" opacity="1.000000" stroke="none" 
	d="
M315.012360,505.287231 
	C314.783142,512.064819 311.999817,515.552917 306.647491,516.199158 
	C301.595337,516.809204 297.327118,514.332214 295.950134,509.991150 
	C294.335999,504.902466 296.327209,499.869232 300.820923,497.679047 
	C306.815460,494.757355 312.564331,497.677948 315.012360,505.287231 
z"/>
<path fill="#233F5F" opacity="1.000000" stroke="none" 
	d="
M193.745941,498.096008 
	C198.140579,501.188293 199.506485,505.531097 197.633041,509.670685 
	C196.405334,512.383484 193.128067,514.825073 190.213577,515.950439 
	C186.643951,517.328796 182.903183,515.837646 180.639709,512.438293 
	C178.246475,508.844086 178.040558,504.858612 180.262314,501.136688 
	C182.317276,497.694244 185.662552,496.333221 189.646591,496.863068 
	C190.929840,497.033691 192.167313,497.548431 193.745941,498.096008 
z"/>
<path fill="#6AB5B8" opacity="1.000000" stroke="none" 
	d="
M803.879028,498.632080 
	C807.971130,496.053162 812.256470,495.731964 815.313782,498.656219 
	C817.531555,500.777557 819.106812,504.532959 819.242676,507.635284 
	C819.429871,511.911438 816.581970,515.153748 812.072571,515.985046 
	C807.655518,516.799316 803.750916,515.778625 801.303162,511.580902 
	C798.969666,507.579163 799.794312,503.141266 803.879028,498.632080 
z"/>
<path fill="#7CBCBF" opacity="1.000000" stroke="none" 
	d="
M611.243286,600.664307 
	C610.680054,599.443298 610.065430,597.884094 610.062134,596.323608 
	C610.007385,570.242859 610.005005,544.161926 610.091614,518.081299 
	C610.097046,516.459412 610.935364,514.840210 611.805054,513.215393 
	C612.098450,520.508911 611.883484,527.806519 611.864685,535.104736 
	C611.813354,555.034607 611.854187,574.964600 611.827454,594.894592 
	C611.825012,596.705017 611.598755,598.515259 611.243286,600.664307 
z"/>
<path fill="#7CBCBF" opacity="1.000000" stroke="none" 
	d="
M650.604614,531.091125 
	C650.613953,533.860413 650.033142,536.803894 650.019836,539.749939 
	C649.936279,558.183899 650.147705,576.621033 649.865051,595.051025 
	C649.792053,599.810974 650.785767,603.444031 654.943359,606.319763 
	C650.191284,606.023621 648.211548,602.882263 648.191650,598.409424 
	C648.101013,577.994934 648.054321,557.579529 648.185852,537.165710 
	C648.198547,535.194885 649.547913,533.232727 650.604614,531.091125 
z"/>
<path fill="#374D69" opacity="1.000000" stroke="none" 
	d="
M194.688263,604.133789 
	C194.596680,586.563477 194.814484,568.798645 195.034409,551.033875 
	C195.106445,545.215027 195.183929,539.396362 195.411331,533.099609 
	C196.010880,534.673401 196.835114,536.723145 196.846405,538.777283 
	C196.952011,557.993042 196.988449,577.210205 196.839447,596.425293 
	C196.819977,598.934570 195.640625,601.434875 194.688263,604.133789 
z"/>
<path fill="#374D69" opacity="1.000000" stroke="none" 
	d="
M181.647003,532.045715 
	C181.928253,555.309204 181.890381,578.808228 181.766800,602.790588 
	C181.152267,601.262573 180.176880,599.253967 180.163940,597.239258 
	C180.039246,577.836060 180.035492,558.431702 180.123169,539.028198 
	C180.133362,536.777466 180.907761,534.530090 181.647003,532.045715 
z"/>
<path fill="#374D69" opacity="1.000000" stroke="none" 
	d="
M496.401154,602.958130 
	C496.077789,593.609497 495.908020,584.018372 496.112488,574.435242 
	C496.223083,569.252747 496.856537,564.137329 489.388550,562.715088 
	C492.316742,560.137695 494.390533,558.312439 496.711304,556.250549 
	C496.875702,571.582336 496.793182,587.150635 496.401154,602.958130 
z"/>
<path fill="#69B4B8" opacity="1.000000" stroke="none" 
	d="
M594.845093,534.430481 
	C595.268372,535.171082 595.948792,536.380310 595.952637,537.591614 
	C596.016235,557.562744 595.998535,577.534119 595.974609,597.505432 
	C595.973816,598.147156 595.713135,598.788574 595.270874,599.721619 
	C594.907776,578.308716 594.847595,556.604431 594.845093,534.430481 
z"/>
<path fill="#102D4C" opacity="1.000000" stroke="none" 
	d="
M444.169739,596.561523 
	C443.781097,596.635498 443.233582,596.245789 443.236725,595.860596 
	C443.330048,584.364990 443.477936,572.869751 443.967529,561.100342 
	C444.301086,572.584167 444.284332,584.342102 444.169739,596.561523 
z"/>
<path fill="#7CBCBF" opacity="1.000000" stroke="none" 
	d="
M659.833679,529.294250 
	C658.391907,533.847412 657.201538,534.064148 651.295532,530.983643 
	C653.345398,528.138611 656.262390,527.649475 659.833679,529.294250 
z"/>
<path fill="#374D69" opacity="1.000000" stroke="none" 
	d="
M183.982910,605.570312 
	C186.992584,604.940491 190.234436,604.603577 193.904724,604.320190 
	C191.372467,607.668640 187.893005,607.440002 183.982910,605.570312 
z"/>
<path fill="#69B4B8" opacity="1.000000" stroke="none" 
	d="
M762.291382,598.834290 
	C763.506836,596.066162 764.908264,596.215759 765.939331,599.231750 
	C766.465271,600.770203 766.642578,602.427856 766.987305,604.419678 
	C765.528381,602.771301 764.059570,600.734924 762.291382,598.834290 
z"/>
<path fill="#69B4B8" opacity="1.000000" stroke="none" 
	d="
M612.504761,513.241516 
	C617.199768,512.959473 622.356934,512.736145 627.795410,512.840088 
	C623.040161,513.211609 618.003540,513.255920 612.504761,513.241516 
z"/>
<path fill="#374D69" opacity="1.000000" stroke="none" 
	d="
M193.951111,530.602661 
	C191.600952,530.466248 189.083069,530.028320 186.295807,529.334961 
	C188.612091,529.486755 191.197739,529.893921 193.951111,530.602661 
z"/>
<path fill="#69B4B8" opacity="1.000000" stroke="none" 
	d="
M594.817993,514.486633 
	C595.078247,518.173401 595.308044,522.321045 595.228088,526.752075 
	C594.874756,523.006104 594.831116,518.976807 594.817993,514.486633 
z"/>
<path fill="#69B4B8" opacity="1.000000" stroke="none" 
	d="
M631.380615,513.220703 
	C633.439819,512.917603 635.947876,512.670593 638.726074,512.706848 
	C636.607300,513.085693 634.218323,513.181274 631.380615,513.220703 
z"/>
<path fill="#7CBCBF" opacity="1.000000" stroke="none" 
	d="
M659.267517,606.608276 
	C659.791260,606.047607 660.621521,605.531433 661.790283,605.023560 
	C661.277161,605.572205 660.425659,606.112427 659.267517,606.608276 
z"/>
<path fill="#374D69" opacity="1.000000" stroke="none" 
	d="
M195.386139,532.209839 
	C195.027771,532.159180 194.580215,531.841370 194.111923,531.202393 
	C194.493103,531.235046 194.895035,531.588928 195.386139,532.209839 
z"/>
<path fill="#102D4C" opacity="1.000000" stroke="none" 
	d="
M444.160889,599.680054 
	C443.903107,599.430603 443.753387,598.848572 443.839752,598.121338 
	C444.140228,598.433228 444.204620,598.890381 444.160889,599.680054 
z"/>
<path fill="#69B4B8" opacity="1.000000" stroke="none" 
	d="
M759.382935,601.350037 
	C759.502441,601.008667 759.903687,600.543823 760.632446,600.033813 
	C760.528198,600.401245 760.096375,600.813904 759.382935,601.350037 
z"/>
<path fill="#6EB6BA" opacity="1.000000" stroke="none" 
	d="
M579.855469,366.203918 
	C580.112976,366.209351 580.252869,366.423828 580.392761,366.638306 
	C580.273315,366.708191 580.153870,366.778076 579.820312,366.861145 
	C579.606262,366.874329 579.737915,366.412994 579.855469,366.203918 
z"/>
<path fill="#374D69" opacity="1.000000" stroke="none" 
	d="
M181.731979,603.530273 
	C181.976334,603.468872 182.268921,603.647766 182.539307,604.101196 
	C182.175293,604.291016 181.929672,604.089294 181.731979,603.530273 
z"/>
<path fill="#374D69" opacity="1.000000" stroke="none" 
	d="
M182.755920,604.716736 
	C182.966339,604.588867 183.294052,604.676636 183.693146,605.028198 
	C183.417725,605.295288 183.120605,605.175354 182.755920,604.716736 
z"/>
<path fill="#FEFEFE" opacity="1.000000" stroke="none" 
	d="
M599.441772,416.542419 
	C599.356506,416.447693 599.671875,416.432068 599.671875,416.432068 
	C599.671875,416.432068 599.527100,416.637146 599.441772,416.542419 
z"/>
<path fill="#233F5F" opacity="1.000000" stroke="none" 
	d="
M460.082642,259.020386 
	C472.187164,255.923630 483.794708,256.815765 494.633789,263.455902 
	C515.047119,275.961304 520.181641,302.172272 506.182617,322.239594 
	C493.408875,340.550415 466.118927,344.421692 448.080688,330.481720 
	C434.097076,319.675140 428.659668,302.241730 434.021912,285.445953 
	C434.425049,284.183258 434.743378,282.893494 435.405273,281.335632 
	C436.404205,281.765991 437.102448,282.473755 437.793274,283.188690 
	C442.954468,288.530243 449.324371,289.847473 455.958557,286.942902 
	C462.694153,283.993958 467.096344,277.745483 465.813721,270.741455 
	C465.059448,266.622742 462.067902,262.913696 460.082642,259.020386 
z"/>
<path fill="#FBFBFC" opacity="1.000000" stroke="none" 
	d="
M459.717346,258.945984 
	C462.067902,262.913696 465.059448,266.622742 465.813721,270.741455 
	C467.096344,277.745483 462.694153,283.993958 455.958557,286.942902 
	C449.324371,289.847473 442.954468,288.530243 437.793274,283.188690 
	C437.102448,282.473755 436.404205,281.765991 435.393677,280.925354 
	C434.572876,277.229187 433.227203,273.543152 433.713959,270.117523 
	C435.452240,257.884552 447.125671,252.939789 459.717346,258.945984 
z"/>
<path fill="#FBFBFC" opacity="1.000000" stroke="none" 
	d="
M982.423645,552.874817 
	C983.218811,555.197266 983.815918,557.189026 984.560669,559.673279 
	C970.450745,559.673279 957.093018,559.673279 943.721069,559.673279 
	C944.652893,551.635498 950.657288,545.019958 958.679504,543.098755 
	C968.622925,540.717468 976.407532,543.840210 982.423645,552.874817 
z"/>
<path fill="#FBFBFC" opacity="1.000000" stroke="none" 
	d="
M347.815582,566.161865 
	C349.800293,549.917725 362.001221,540.259277 375.916656,543.469116 
	C387.902313,546.233826 395.710907,558.293518 393.909088,571.256958 
	C392.121521,584.117859 381.708984,593.534058 370.046082,592.836487 
	C357.314850,592.075073 348.157928,582.104126 347.800537,568.607849 
	C347.782959,567.943909 347.805481,567.278870 347.815582,566.161865 
z"/>
<path fill="#FCFDFD" opacity="1.000000" stroke="none" 
	d="
M751.591003,545.050293 
	C754.418579,547.419312 757.032349,549.760437 759.870544,552.302856 
	C760.095032,552.504150 760.334045,552.757690 760.567383,553.211792 
	C761.857117,556.447754 762.913513,559.229675 763.969849,562.011597 
	C763.993774,564.338928 764.050537,566.666443 764.036072,568.993530 
	C763.954041,582.216370 754.482605,592.545715 742.184753,592.844849 
	C730.147461,593.137756 719.856567,582.926697 718.948059,570.078308 
	C717.780701,553.569519 729.382629,541.325928 745.804749,543.225830 
	C748.003235,543.894043 749.499329,544.357910 750.995483,544.821716 
	C750.995483,544.821716 751.377197,545.022400 751.591003,545.050293 
z"/>
<path fill="#69B4B8" opacity="1.000000" stroke="none" 
	d="
M764.304810,561.862305 
	C762.913513,559.229675 761.857117,556.447754 760.730591,553.272644 
	C761.910278,553.581238 763.146973,554.307861 764.412415,554.980225 
	C767.916138,556.841858 767.987366,558.777466 764.304810,561.862305 
z"/>
<path fill="#69B4B8" opacity="1.000000" stroke="none" 
	d="
M750.945801,544.480408 
	C749.499329,544.357910 748.003235,543.894043 746.254150,543.213562 
	C748.134644,541.227600 749.743469,541.705933 750.945801,544.480408 
z"/>
<path fill="#102D4C" opacity="1.000000" stroke="none" 
	d="
M312.658051,534.300476 
	C313.174622,534.798584 313.583801,535.589111 313.581146,536.378174 
	C313.509888,557.619690 313.396332,578.861145 313.124146,600.545532 
	C312.634216,599.761719 312.031189,598.535767 312.027466,597.308044 
	C311.965942,577.046753 311.976318,556.785217 311.992920,536.523743 
	C311.993439,535.879822 312.231415,535.236084 312.658051,534.300476 
z"/>
</svg>